<svg xmlns="http://www.w3.org/2000/svg" xmlns:xlink="http://www.w3.org/1999/xlink" width="221.459" height="236.444" viewBox="0 0 221.459 236.444">
  <defs>
    <linearGradient id="linear-gradient" x1="-11.819" y1="1.828" x2="-10.534" y2="1.828" gradientUnits="objectBoundingBox">
      <stop offset="0" stop-color="#cb236d"/>
      <stop offset="0.9" stop-color="#59246d"/>
      <stop offset="1" stop-color="#4c246d"/>
    </linearGradient>
    <linearGradient id="linear-gradient-2" x1="-39.307" y1="1.662" x2="-43.332" y2="2.64" gradientUnits="objectBoundingBox">
      <stop offset="0" stop-color="#2b3582"/>
      <stop offset="1" stop-color="#150e42"/>
    </linearGradient>
    <linearGradient id="linear-gradient-3" x1="-1.791" y1="0.949" x2="-3.477" y2="2.585" gradientUnits="objectBoundingBox">
      <stop offset="0" stop-color="#a737d5"/>
      <stop offset="1" stop-color="#ef497a"/>
    </linearGradient>
    <linearGradient id="linear-gradient-4" x1="-14.911" y1="1.218" x2="-16.396" y2="2.201" xlink:href="#linear-gradient-2"/>
    <linearGradient id="linear-gradient-5" x1="0.495" y1="0.11" x2="0.507" y2="1.573" gradientUnits="objectBoundingBox">
      <stop offset="0" stop-color="#53d8ff"/>
      <stop offset="1" stop-color="#3840f7"/>
    </linearGradient>
    <linearGradient id="linear-gradient-6" x1="1.082" y1="-13.098" x2="0.301" y2="5.06" xlink:href="#linear-gradient-5"/>
    <linearGradient id="linear-gradient-7" x1="0.414" y1="-3.687" x2="0.508" y2="1.097" xlink:href="#linear-gradient-5"/>
    <linearGradient id="linear-gradient-8" x1="-5.754" y1="-3.244" x2="-6.492" y2="0.565" xlink:href="#linear-gradient-2"/>
    <linearGradient id="linear-gradient-9" x1="-4.437" y1="-14.528" x2="-5.295" y2="-9.156" gradientUnits="objectBoundingBox">
      <stop offset="0" stop-color="#5ab6ff"/>
      <stop offset="1" stop-color="#2f68e3"/>
    </linearGradient>
    <linearGradient id="linear-gradient-10" x1="-4.956" y1="-2.494" x2="-5.578" y2="1.608" xlink:href="#linear-gradient-2"/>
    <linearGradient id="linear-gradient-11" x1="-6.521" y1="-56.89" x2="-7.704" y2="-34.889" xlink:href="#linear-gradient-9"/>
    <linearGradient id="linear-gradient-12" x1="0.515" y1="0.589" x2="-0.558" y2="8.862" xlink:href="#linear-gradient-5"/>
    <linearGradient id="linear-gradient-13" x1="0.497" y1="-1.642" x2="0.501" y2="1.849" xlink:href="#linear-gradient-5"/>
    <linearGradient id="linear-gradient-14" x1="0" y1="0.5" x2="1" y2="0.5" xlink:href="#linear-gradient-2"/>
    <linearGradient id="linear-gradient-15" x1="0.5" y1="-3.643" x2="0.5" y2="0.689" xlink:href="#linear-gradient-5"/>
    <linearGradient id="linear-gradient-16" x1="0.758" y1="-2.07" x2="0.463" y2="1.3" xlink:href="#linear-gradient-5"/>
    <linearGradient id="linear-gradient-18" x1="0.384" y1="-2.924" x2="0.527" y2="1.301" xlink:href="#linear-gradient-5"/>
    <linearGradient id="linear-gradient-19" x1="0.485" y1="0.784" x2="0.801" y2="-3" xlink:href="#linear-gradient-5"/>
    <linearGradient id="linear-gradient-20" x1="0.641" y1="-2.029" x2="1.09" y2="-9.28" xlink:href="#linear-gradient-5"/>
    <linearGradient id="linear-gradient-21" x1="5.834" y1="-4.916" x2="-3.262" y2="4.259" xlink:href="#linear-gradient-5"/>
    <linearGradient id="linear-gradient-22" x1="-9.55" y1="0.093" x2="-10.82" y2="1.613" xlink:href="#linear-gradient-2"/>
    <linearGradient id="linear-gradient-23" x1="-11.479" y1="0.469" x2="-12.094" y2="1.249" gradientUnits="objectBoundingBox">
      <stop offset="0" stop-color="#fdf53f"/>
      <stop offset="1" stop-color="#d93c65"/>
    </linearGradient>
    <linearGradient id="linear-gradient-24" x1="0.686" y1="-0.679" x2="0.313" y2="1.692" xlink:href="#linear-gradient-23"/>
    <linearGradient id="linear-gradient-25" x1="-28.944" y1="35.385" x2="-28.685" y2="29.885" gradientUnits="objectBoundingBox">
      <stop offset="0" stop-color="#cb236d"/>
      <stop offset="1" stop-color="#4c246d"/>
    </linearGradient>
    <linearGradient id="linear-gradient-26" x1="0.562" y1="0.402" x2="2.01" y2="-1.636" xlink:href="#linear-gradient-25"/>
    <linearGradient id="linear-gradient-27" x1="0.215" y1="2.287" x2="1.613" y2="-6.471" xlink:href="#linear-gradient-25"/>
    <linearGradient id="linear-gradient-28" x1="-10.153" y1="0.5" x2="-9.153" y2="0.5" xlink:href="#linear-gradient-2"/>
    <linearGradient id="linear-gradient-29" x1="-7.793" y1="-12.944" x2="-11.491" y2="11.133" xlink:href="#linear-gradient-5"/>
    <linearGradient id="linear-gradient-30" x1="-26.225" y1="-0.843" x2="-26.732" y2="2.39" gradientUnits="objectBoundingBox">
      <stop offset="0" stop-color="#f9b776"/>
      <stop offset="1" stop-color="#f47960"/>
    </linearGradient>
    <linearGradient id="linear-gradient-31" x1="-5.897" y1="-5.387" x2="-8.414" y2="17.678" xlink:href="#linear-gradient-5"/>
    <linearGradient id="linear-gradient-32" x1="-7.053" y1="0.5" x2="-6.053" y2="0.5" xlink:href="#linear-gradient-2"/>
    <linearGradient id="linear-gradient-33" x1="-22.913" y1="0.291" x2="-23.392" y2="3.006" xlink:href="#linear-gradient-30"/>
    <linearGradient id="linear-gradient-34" x1="1.253" y1="-0.076" x2="0.765" y2="0.304" xlink:href="#linear-gradient-2"/>
    <linearGradient id="linear-gradient-35" x1="-4.771" y1="0.5" x2="-3.771" y2="0.5" xlink:href="#linear-gradient-30"/>
    <linearGradient id="linear-gradient-36" x1="0.243" y1="1.156" x2="2.585" y2="-3.094" xlink:href="#linear-gradient-23"/>
    <linearGradient id="linear-gradient-37" x1="-10.096" y1="-0.006" x2="-11.326" y2="0.733" gradientUnits="objectBoundingBox">
      <stop offset="0" stop-color="#ce1567"/>
      <stop offset="1" stop-color="#7a1dbc"/>
    </linearGradient>
    <linearGradient id="linear-gradient-38" x1="-2.671" y1="-0.073" x2="-3.982" y2="0.944" xlink:href="#linear-gradient-30"/>
    <linearGradient id="linear-gradient-39" x1="-1.505" y1="0.086" x2="-3.655" y2="1.506" xlink:href="#linear-gradient-37"/>
    <linearGradient id="linear-gradient-40" x1="-8.758" y1="1.219" x2="-8.367" y2="0.33" xlink:href="#linear-gradient-30"/>
    <linearGradient id="linear-gradient-41" x1="-2.201" y1="0.45" x2="-3.093" y2="4.043" xlink:href="#linear-gradient-30"/>
    <linearGradient id="linear-gradient-42" x1="-83.183" y1="77.123" x2="-80.36" y2="73.419" xlink:href="#linear-gradient-37"/>
    <linearGradient id="linear-gradient-43" x1="-48.977" y1="63.146" x2="-47.338" y2="60.134" xlink:href="#linear-gradient-37"/>
    <linearGradient id="linear-gradient-44" x1="-7.769" y1="0.277" x2="-10.028" y2="1.877" xlink:href="#linear-gradient-30"/>
    <linearGradient id="linear-gradient-45" x1="-6.004" y1="0.152" x2="-5.254" y2="1.129" xlink:href="#linear-gradient-2"/>
    <linearGradient id="linear-gradient-46" x1="-32.777" y1="-0.685" x2="-37.328" y2="1.784" xlink:href="#linear-gradient-30"/>
    <linearGradient id="linear-gradient-47" x1="-19.36" y1="0.5" x2="-18.36" y2="0.5" xlink:href="#linear-gradient-30"/>
    <linearGradient id="linear-gradient-48" x1="0.435" y1="0.291" x2="1.656" y2="2.046" xlink:href="#linear-gradient-23"/>
    <linearGradient id="linear-gradient-49" x1="0.413" y1="1.235" x2="0.782" y2="-1.885" xlink:href="#linear-gradient-30"/>
    <linearGradient id="linear-gradient-50" x1="3.648" y1="19.461" x2="2.576" y2="20.742" xlink:href="#linear-gradient-30"/>
    <linearGradient id="linear-gradient-51" x1="2.097" y1="13.299" x2="3.004" y2="13.299" xlink:href="#linear-gradient-2"/>
    <linearGradient id="linear-gradient-52" x1="3.913" y1="65.828" x2="6.371" y2="63.179" xlink:href="#linear-gradient-30"/>
    <linearGradient id="linear-gradient-53" x1="-14.011" y1="0.5" x2="-13.011" y2="0.5" xlink:href="#linear-gradient-37"/>
    <linearGradient id="linear-gradient-54" x1="-17.152" y1="51.327" x2="-16.902" y2="47.383" xlink:href="#linear-gradient-5"/>
    <linearGradient id="linear-gradient-55" x1="-51.636" y1="0.5" x2="-50.636" y2="0.5" xlink:href="#linear-gradient-30"/>
    <linearGradient id="linear-gradient-56" x1="-48.577" y1="0.5" x2="-47.577" y2="0.5" xlink:href="#linear-gradient-37"/>
    <linearGradient id="linear-gradient-57" x1="-37.773" y1="31.085" x2="-37.34" y2="28.685" xlink:href="#linear-gradient-5"/>
    <linearGradient id="linear-gradient-58" x1="-53.683" y1="0.5" x2="-52.683" y2="0.5" xlink:href="#linear-gradient-30"/>
    <linearGradient id="linear-gradient-59" x1="-10.5" y1="1.021" x2="-8.553" y2="-0.586" xlink:href="#linear-gradient-37"/>
    <linearGradient id="linear-gradient-60" x1="6.057" y1="0.14" x2="3.628" y2="1.459" xlink:href="#linear-gradient-30"/>
    <linearGradient id="linear-gradient-61" x1="2.889" y1="0.024" x2="0.078" y2="1.814" xlink:href="#linear-gradient-2"/>
    <linearGradient id="linear-gradient-62" x1="3.675" y1="0.048" x2="0.468" y2="1.75" xlink:href="#linear-gradient-23"/>
    <linearGradient id="linear-gradient-63" x1="3.462" y1="279.567" x2="2.533" y2="283.889" gradientUnits="objectBoundingBox">
      <stop offset="0" stop-color="#8d55d1"/>
      <stop offset="0.996" stop-color="#1c2873"/>
    </linearGradient>
    <linearGradient id="linear-gradient-64" x1="4.17" y1="0.133" x2="1.131" y2="1.569" xlink:href="#linear-gradient-30"/>
    <linearGradient id="linear-gradient-65" x1="-23.704" y1="12.077" x2="-25.418" y2="13.078" xlink:href="#linear-gradient-2"/>
    <linearGradient id="linear-gradient-66" x1="0.353" y1="0.264" x2="2.723" y2="3.5" xlink:href="#linear-gradient-23"/>
    <linearGradient id="linear-gradient-67" x1="2.394" y1="-2.848" x2="-0.742" y2="2.697" xlink:href="#linear-gradient-23"/>
    <linearGradient id="linear-gradient-68" x1="0.725" y1="0.147" x2="-0.089" y2="1.392" xlink:href="#linear-gradient-30"/>
    <linearGradient id="linear-gradient-69" x1="-0.184" y1="1.294" x2="0.486" y2="0.516" xlink:href="#linear-gradient-23"/>
    <linearGradient id="linear-gradient-70" x1="0.878" y1="-0.071" x2="-1.173" y2="3.028" xlink:href="#linear-gradient-23"/>
  </defs>
  <g id="Group_6537" data-name="Group 6537" transform="translate(-2221.276 -307.668)">
    <g id="Group_6479" data-name="Group 6479" transform="translate(2236.042 307.668)">
      <path id="Path_24161" data-name="Path 24161" d="M2409.135,307.668a2.879,2.879,0,0,1,2.239.89,3.507,3.507,0,0,1,.812,2.454v.86h.8v1.975h-.8l.02,3.618a1.272,1.272,0,0,0,.44,1.056,1.713,1.713,0,0,0,1.1.352,2.485,2.485,0,0,0,2.024-.948,3.494,3.494,0,0,0,.772-2.278q0-1.838-1.76-1.838a4.2,4.2,0,0,0-.821.078v-1.995a5.776,5.776,0,0,1,1.134-.117,3.559,3.559,0,0,1,2.777,1.056,4.031,4.031,0,0,1,.958,2.816,5.281,5.281,0,0,1-1.388,3.667,4.741,4.741,0,0,1-3.7,1.535,4.15,4.15,0,0,1-2.708-.9,3.027,3.027,0,0,1-1.1-2.484v-3.618h-1.623v-1.975h1.623v-.508q0-1.584-1.369-1.584-.509,0-.7.02v-2.014A8.34,8.34,0,0,1,2409.135,307.668Z" transform="translate(-2407.864 -307.668)" fill="#fff"/>
    </g>
    <g id="Group_6533" data-name="Group 6533" transform="translate(2221.276 318.263)">
      <path id="Path_24162" data-name="Path 24162" d="M2416.263,685.874a79.725,79.725,0,0,1-12.2,10.272c-39.8,28.555-86.888,20.231-96.9,18.2-14.779-3-43.346-8.8-64-33.092-31.247-36.746-26.381-94.638-2.144-132.854,4.434-6.99,27.852-45.788,75.45-52.01,28.806-3.765,62.384,3.829,86.7,24.2C2454.216,563.353,2450.583,649.743,2416.263,685.874Z" transform="translate(-2221.276 -491.192)" fill="#656565" opacity="0.21"/>
      <g id="Group_6481" data-name="Group 6481" transform="translate(99.622 57.016)">
        <path id="Path_24163" data-name="Path 24163" d="M3555.926,1163.177c-.022-.636-.979-1.148-2.153-1.148h-71.187c-1.189,0-2.453.528-2.453,1.172v90.049c0,.481.5.943,1.131,1.282a5.425,5.425,0,0,0,2.443.529l71.967-.106a5.142,5.142,0,0,0,2.4-.544,1.549,1.549,0,0,0,.962-1.3Z" transform="translate(-3480.133 -1162.029)" fill="#656565"/>
        <g id="Group_6480" data-name="Group 6480" transform="translate(11.188 4.759)">
          <path id="Path_24164" data-name="Path 24164" d="M3650.308,1223.785l-23.287-.044.009-1.579,23.261.04Z" transform="translate(-3626.585 -1222.162)" fill="#fff" style="mix-blend-mode: overlay;isolation: isolate"/>
          <path id="Path_24165" data-name="Path 24165" d="M3650,1296.973l-23.383-.058.009-1.592,23.356.054Z" transform="translate(-3626.213 -1289.534)" fill="#fff" style="mix-blend-mode: overlay;isolation: isolate"/>
          <path id="Path_24166" data-name="Path 24166" d="M3649.691,1370.764l-23.479-.072.009-1.605,23.452.068Z" transform="translate(-3625.84 -1357.46)" fill="#fff" style="mix-blend-mode: overlay;isolation: isolate"/>
          <path id="Path_24167" data-name="Path 24167" d="M3649.378,1445.167l-23.576-.087.009-1.619,23.55.083Z" transform="translate(-3625.462 -1425.949)" fill="#fff" style="mix-blend-mode: overlay;isolation: isolate"/>
          <path id="Path_24168" data-name="Path 24168" d="M3649.063,1520.187l-23.674-.1.009-1.632,23.647.1Z" transform="translate(-3625.081 -1495.006)" fill="#fff" style="mix-blend-mode: overlay;isolation: isolate"/>
          <path id="Path_24169" data-name="Path 24169" d="M3648.424,1672.112l-23.873-.132.009-1.66,23.846.128Z" transform="translate(-3624.311 -1634.854)" fill="#fff" style="mix-blend-mode: overlay;isolation: isolate"/>
          <path id="Path_24170" data-name="Path 24170" d="M3647.447,1904.832l-24.178-.18.009-1.7,24.149.175Z" transform="translate(-3623.13 -1849.075)" fill="#fff" style="mix-blend-mode: overlay;isolation: isolate"/>
          <path id="Path_24171" data-name="Path 24171" d="M3648.745,1595.833l-23.773-.117.009-1.646,23.747.113Z" transform="translate(-3624.698 -1564.639)" fill="#fff" style="mix-blend-mode: overlay;isolation: isolate"/>
          <path id="Path_24172" data-name="Path 24172" d="M3648.1,1749.034l-23.974-.148.009-1.674,23.946.144Z" transform="translate(-3623.92 -1705.661)" fill="#fff" style="mix-blend-mode: overlay;isolation: isolate"/>
          <path id="Path_24173" data-name="Path 24173" d="M3647.776,1826.6l-24.076-.164.009-1.688,24.048.159Z" transform="translate(-3623.527 -1777.065)" fill="#fff" style="mix-blend-mode: overlay;isolation: isolate"/>
          <path id="Path_24174" data-name="Path 24174" d="M3647.115,1983.727l-24.281-.2.01-1.717,24.252.192Z" transform="translate(-3622.729 -1921.698)" fill="#fff" style="mix-blend-mode: overlay;isolation: isolate"/>
          <path id="Path_24175" data-name="Path 24175" d="M3646.781,2063.3l-24.385-.213.01-1.731,24.356.208Z" transform="translate(-3622.326 -1994.941)" fill="#fff" style="mix-blend-mode: overlay;isolation: isolate"/>
          <path id="Path_24176" data-name="Path 24176" d="M3646.444,2143.551l-24.49-.23.01-1.747,24.461.225Z" transform="translate(-3621.919 -2068.815)" fill="#fff" style="mix-blend-mode: overlay;isolation: isolate"/>
          <path id="Path_24177" data-name="Path 24177" d="M3646.1,2224.5l-24.6-.247.01-1.762,24.567.242Z" transform="translate(-3621.508 -2143.325)" fill="#fff" style="mix-blend-mode: overlay;isolation: isolate"/>
          <path id="Path_24178" data-name="Path 24178" d="M4034.11,1224.447l-23.433-.044-.025-1.584,23.406.04Z" transform="translate(-3979.857 -1222.767)" fill="#fff" style="mix-blend-mode: overlay;isolation: isolate"/>
          <path id="Path_24179" data-name="Path 24179" d="M4035.382,1297.868l-23.53-.058-.025-1.6,23.5.054Z" transform="translate(-3980.938 -1290.353)" fill="#fff" style="mix-blend-mode: overlay;isolation: isolate"/>
          <path id="Path_24180" data-name="Path 24180" d="M4036.664,1371.9l-23.627-.073-.026-1.611,23.6.069Z" transform="translate(-3982.029 -1358.496)" fill="#fff" style="mix-blend-mode: overlay;isolation: isolate"/>
          <path id="Path_24181" data-name="Path 24181" d="M4037.955,1446.539l-23.726-.087-.026-1.624,23.7.083Z" transform="translate(-3983.126 -1427.207)" fill="#fff" style="mix-blend-mode: overlay;isolation: isolate"/>
          <path id="Path_24182" data-name="Path 24182" d="M4039.259,1521.8l-23.826-.1-.026-1.637,23.8.1Z" transform="translate(-3984.236 -1496.488)" fill="#fff" style="mix-blend-mode: overlay;isolation: isolate"/>
          <path id="Path_24183" data-name="Path 24183" d="M4041.9,1674.227l-24.027-.133-.027-1.665,24,.129Z" transform="translate(-3986.48 -1636.797)" fill="#fff" style="mix-blend-mode: overlay;isolation: isolate"/>
          <path id="Path_24184" data-name="Path 24184" d="M4045.941,1907.73l-24.335-.181-.027-1.708,24.307.176Z" transform="translate(-3989.918 -1851.737)" fill="#fff" style="mix-blend-mode: overlay;isolation: isolate"/>
          <path id="Path_24185" data-name="Path 24185" d="M4040.573,1597.7l-23.926-.117-.026-1.651,23.9.113Z" transform="translate(-3985.354 -1566.349)" fill="#fff" style="mix-blend-mode: overlay;isolation: isolate"/>
          <path id="Path_24186" data-name="Path 24186" d="M4043.234,1751.406l-24.129-.149-.027-1.679,24.1.145Z" transform="translate(-3987.616 -1707.84)" fill="#fff" style="mix-blend-mode: overlay;isolation: isolate"/>
          <path id="Path_24187" data-name="Path 24187" d="M4044.581,1829.237l-24.231-.165-.027-1.693,24.2.16Z" transform="translate(-3988.761 -1779.484)" fill="#fff" style="mix-blend-mode: overlay;isolation: isolate"/>
          <path id="Path_24188" data-name="Path 24188" d="M4047.312,1986.894l-24.44-.2-.027-1.723,24.411.193Z" transform="translate(-3991.084 -1924.607)" fill="#fff" style="mix-blend-mode: overlay;isolation: isolate"/>
          <path id="Path_24189" data-name="Path 24189" d="M4048.694,2066.737l-24.545-.214-.028-1.737,24.517.209Z" transform="translate(-3992.26 -1998.103)" fill="#fff" style="mix-blend-mode: overlay;isolation: isolate"/>
          <path id="Path_24190" data-name="Path 24190" d="M4050.088,2147.271l-24.651-.231-.028-1.752,24.623.227Z" transform="translate(-3993.445 -2072.233)" fill="#fff" style="mix-blend-mode: overlay;isolation: isolate"/>
          <path id="Path_24191" data-name="Path 24191" d="M4051.495,2228.5l-24.759-.249-.028-1.767,24.729.244Z" transform="translate(-3994.642 -2147.004)" fill="#fff" style="mix-blend-mode: overlay;isolation: isolate"/>
        </g>
      </g>
      <g id="Group_6493" data-name="Group 6493" transform="translate(59.62 15.706)">
        <path id="Path_24192" data-name="Path 24192" d="M3033.858,642.628a2.645,2.645,0,0,0-2.608-2.609h-53.741a2.893,2.893,0,0,0-2.856,2.69V772.384a2.839,2.839,0,0,0,2.8,2.627l56.189-.154a2.636,2.636,0,0,0,1.873-.79,2.681,2.681,0,0,0,.751-1.9Z" transform="translate(-2974.653 -640.019)" fill="#656565"/>
        <g id="Group_6492" data-name="Group 6492" transform="translate(4.197 7.358)" opacity="0.5">
          <g id="Group_6482" data-name="Group 6482">
            <path id="Path_24193" data-name="Path 24193" d="M3043.118,740.924l-15.31-.021-.122-7.9h15.324Z" transform="translate(-3027.687 -733.002)" fill="#fff"/>
            <path id="Path_24194" data-name="Path 24194" d="M3260.334,740.921l-15.294-.021-.1-7.9h15.309Z" transform="translate(-3227.743 -733.002)" fill="#fff"/>
            <path id="Path_24195" data-name="Path 24195" d="M3477.333,740.917l-15.279-.021-.088-7.894h15.294Z" transform="translate(-3427.598 -733.002)" fill="#fff"/>
          </g>
          <g id="Group_6484" data-name="Group 6484" transform="translate(0.218 14.244)">
            <path id="Path_24196" data-name="Path 24196" d="M3045.85,921.026l-15.283.01-.121-7.85,15.3-.006Z" transform="translate(-3030.447 -913.166)" fill="#fff"/>
            <path id="Path_24197" data-name="Path 24197" d="M3262.688,920.932l-15.268.01-.1-7.846,15.282-.006Z" transform="translate(-3230.154 -913.083)" fill="#fff"/>
            <g id="Group_6483" data-name="Group 6483" transform="translate(34.307)">
              <path id="Path_24198" data-name="Path 24198" d="M3479.308,920.839l-15.252.01-.088-7.842,15.267-.006Z" transform="translate(-3463.968 -913)" fill="#fff"/>
            </g>
          </g>
          <g id="Group_6485" data-name="Group 6485" transform="translate(0.436 28.343)">
            <path id="Path_24199" data-name="Path 24199" d="M3048.574,1099.331l-15.256.016-.12-7.823,15.271-.013Z" transform="translate(-3033.197 -1091.484)" fill="#fff"/>
            <path id="Path_24200" data-name="Path 24200" d="M3265.034,1099.149l-15.241.016-.1-7.819,15.256-.013Z" transform="translate(-3232.557 -1091.319)" fill="#fff"/>
            <path id="Path_24201" data-name="Path 24201" d="M3481.277,1098.965l-15.226.016-.087-7.815,15.24-.013Z" transform="translate(-3431.717 -1091.154)" fill="#fff"/>
          </g>
          <g id="Group_6486" data-name="Group 6486" transform="translate(0.653 42.393)">
            <path id="Path_24202" data-name="Path 24202" d="M3051.288,1277.018l-15.23.022-.12-7.8,15.245-.019Z" transform="translate(-3035.938 -1269.184)" fill="#fff"/>
            <path id="Path_24203" data-name="Path 24203" d="M3267.372,1276.747l-15.215.022-.1-7.792,15.229-.019Z" transform="translate(-3234.951 -1268.938)" fill="#fff"/>
            <path id="Path_24204" data-name="Path 24204" d="M3483.24,1276.475l-15.2.022-.087-7.788,15.214-.019Z" transform="translate(-3433.765 -1268.691)" fill="#fff"/>
          </g>
          <g id="Group_6487" data-name="Group 6487" transform="translate(0.869 56.394)">
            <path id="Path_24205" data-name="Path 24205" d="M3053.993,1454.091l-15.2.029-.12-7.769,15.218-.025Z" transform="translate(-3038.67 -1446.269)" fill="#fff"/>
            <path id="Path_24206" data-name="Path 24206" d="M3269.7,1453.731l-15.188.029-.1-7.765,15.2-.025Z" transform="translate(-3237.337 -1445.942)" fill="#fff"/>
            <path id="Path_24207" data-name="Path 24207" d="M3485.195,1453.372l-15.173.028-.087-7.761,15.188-.025Z" transform="translate(-3435.806 -1445.615)" fill="#fff"/>
          </g>
          <g id="Group_6488" data-name="Group 6488" transform="translate(1.085 70.347)">
            <path id="Path_24208" data-name="Path 24208" d="M3056.688,1630.552l-15.177.035-.119-7.742,15.192-.031Z" transform="translate(-3041.392 -1622.744)" fill="#fff"/>
            <path id="Path_24209" data-name="Path 24209" d="M3272.023,1630.1l-15.162.035-.1-7.738,15.177-.031Z" transform="translate(-3239.715 -1622.335)" fill="#fff"/>
            <path id="Path_24210" data-name="Path 24210" d="M3487.143,1629.659l-15.146.035-.086-7.734,15.161-.031Z" transform="translate(-3437.841 -1621.928)" fill="#fff"/>
          </g>
          <g id="Group_6489" data-name="Group 6489" transform="translate(1.299 84.251)">
            <path id="Path_24211" data-name="Path 24211" d="M3059.375,1806.406l-15.151.041-.119-7.715,15.165-.038Z" transform="translate(-3044.105 -1798.61)" fill="#fff"/>
            <path id="Path_24212" data-name="Path 24212" d="M3274.337,1805.871l-15.136.041-.1-7.711,15.15-.037Z" transform="translate(-3242.085 -1798.121)" fill="#fff"/>
            <path id="Path_24213" data-name="Path 24213" d="M3489.085,1805.338l-15.12.041-.086-7.708,15.135-.037Z" transform="translate(-3439.868 -1797.634)" fill="#fff"/>
          </g>
          <g id="Group_6490" data-name="Group 6490" transform="translate(1.513 98.108)">
            <path id="Path_24214" data-name="Path 24214" d="M3062.051,1981.653l-15.125.047-.119-7.689,15.139-.043Z" transform="translate(-3046.808 -1973.87)" fill="#fff"/>
            <path id="Path_24215" data-name="Path 24215" d="M3276.643,1981.033l-15.109.047-.1-7.685,15.124-.044Z" transform="translate(-3244.447 -1973.302)" fill="#fff"/>
            <path id="Path_24216" data-name="Path 24216" d="M3491.021,1980.413l-15.095.047-.086-7.681,15.109-.043Z" transform="translate(-3441.888 -1972.735)" fill="#fff"/>
          </g>
          <g id="Group_6491" data-name="Group 6491" transform="translate(1.726 111.918)">
            <path id="Path_24217" data-name="Path 24217" d="M3064.719,2156.3l-15.1.053-.118-7.662,15.113-.05Z" transform="translate(-3049.502 -2148.529)" fill="#fff"/>
            <path id="Path_24218" data-name="Path 24218" d="M3278.94,2155.593l-15.084.053-.1-7.659,15.1-.05Z" transform="translate(-3246.8 -2147.882)" fill="#fff"/>
            <path id="Path_24219" data-name="Path 24219" d="M3492.949,2154.888l-15.069.053-.085-7.655,15.083-.05Z" transform="translate(-3443.901 -2147.236)" fill="#fff"/>
          </g>
        </g>
      </g>
      <g id="Group_6504" data-name="Group 6504" transform="translate(6.303 58.005)">
        <path id="Path_24220" data-name="Path 24220" d="M2365.4,1176.329c-.029-.994-1.292-1.812-2.841-1.812H2304.03c-1.569,0-3.111.861-3.111,1.868v90.047a1.777,1.777,0,0,0,.97,1.292,4.036,4.036,0,0,0,2.081.532l61.194-.107a3.83,3.83,0,0,0,2.04-.548,1.588,1.588,0,0,0,.818-1.321Z" transform="translate(-2300.919 -1174.517)" fill="#656565"/>
        <g id="Group_6503" data-name="Group 6503" transform="translate(4.571 5.11)" opacity="0.5">
          <g id="Group_6494" data-name="Group 6494">
            <path id="Path_24221" data-name="Path 24221" d="M2375.482,1244.586l-16.673-.014-.132-5.487h16.689Z" transform="translate(-2358.677 -1239.085)" fill="#fff"/>
            <path id="Path_24222" data-name="Path 24222" d="M2612.049,1244.584l-16.657-.014-.114-5.484h16.673Z" transform="translate(-2576.554 -1239.085)" fill="#fff"/>
            <path id="Path_24223" data-name="Path 24223" d="M2848.378,1244.581l-16.64-.014-.1-5.481H2848.3Z" transform="translate(-2794.213 -1239.085)" fill="#fff"/>
          </g>
          <g id="Group_6495" data-name="Group 6495" transform="translate(0.238 9.891)">
            <path id="Path_24224" data-name="Path 24224" d="M2378.459,1369.65l-16.644.007-.132-5.451,16.66,0Z" transform="translate(-2361.683 -1364.192)" fill="#fff"/>
            <path id="Path_24225" data-name="Path 24225" d="M2614.612,1369.585l-16.628.007-.114-5.448,16.644,0Z" transform="translate(-2579.18 -1364.134)" fill="#fff"/>
            <path id="Path_24226" data-name="Path 24226" d="M2850.529,1369.52l-16.611.007-.1-5.445,16.627,0Z" transform="translate(-2796.459 -1364.077)" fill="#fff"/>
          </g>
          <g id="Group_6496" data-name="Group 6496" transform="translate(0.475 19.681)">
            <path id="Path_24227" data-name="Path 24227" d="M2381.425,1493.466l-16.616.011-.131-5.432,16.631-.009Z" transform="translate(-2364.679 -1488.016)" fill="#fff"/>
            <path id="Path_24228" data-name="Path 24228" d="M2617.168,1493.339l-16.6.011-.113-5.429,16.615-.009Z" transform="translate(-2581.797 -1487.902)" fill="#fff"/>
            <path id="Path_24229" data-name="Path 24229" d="M2852.674,1493.212l-16.582.011-.1-5.427,16.6-.009Z" transform="translate(-2798.698 -1487.788)" fill="#fff"/>
          </g>
          <g id="Group_6497" data-name="Group 6497" transform="translate(0.711 29.438)">
            <path id="Path_24230" data-name="Path 24230" d="M2384.381,1616.852l-16.586.015-.131-5.413,16.6-.013Z" transform="translate(-2367.664 -1611.412)" fill="#fff"/>
            <path id="Path_24231" data-name="Path 24231" d="M2619.714,1616.664l-16.57.016-.113-5.411,16.586-.013Z" transform="translate(-2584.405 -1611.241)" fill="#fff"/>
            <path id="Path_24232" data-name="Path 24232" d="M2854.811,1616.476l-16.553.015-.095-5.408,16.569-.013Z" transform="translate(-2800.929 -1611.07)" fill="#fff"/>
          </g>
          <g id="Group_6498" data-name="Group 6498" transform="translate(0.947 39.16)">
            <path id="Path_24233" data-name="Path 24233" d="M2387.327,1739.812l-16.558.02-.13-5.395,16.574-.018Z" transform="translate(-2370.639 -1734.381)" fill="#fff"/>
            <path id="Path_24234" data-name="Path 24234" d="M2622.251,1739.563l-16.541.02-.112-5.392,16.557-.017Z" transform="translate(-2587.003 -1734.154)" fill="#fff"/>
            <path id="Path_24235" data-name="Path 24235" d="M2856.94,1739.313l-16.525.02-.094-5.389,16.54-.018Z" transform="translate(-2803.152 -1733.926)" fill="#fff"/>
          </g>
          <g id="Group_6499" data-name="Group 6499" transform="translate(1.181 48.849)">
            <path id="Path_24236" data-name="Path 24236" d="M2390.262,1862.348l-16.529.024-.13-5.376,16.545-.022Z" transform="translate(-2373.603 -1856.926)" fill="#fff"/>
            <path id="Path_24237" data-name="Path 24237" d="M2624.78,1862.037l-16.513.024-.112-5.373,16.528-.022Z" transform="translate(-2589.593 -1856.642)" fill="#fff"/>
            <path id="Path_24238" data-name="Path 24238" d="M2859.063,1861.727l-16.5.024-.094-5.371,16.512-.022Z" transform="translate(-2805.368 -1856.359)" fill="#fff"/>
          </g>
          <g id="Group_6500" data-name="Group 6500" transform="translate(1.415 58.505)">
            <path id="Path_24239" data-name="Path 24239" d="M2393.188,1984.461l-16.5.028-.13-5.357,16.516-.026Z" transform="translate(-2376.558 -1979.048)" fill="#fff"/>
            <path id="Path_24240" data-name="Path 24240" d="M2627.3,1984.09l-16.484.028-.112-5.355,16.5-.026Z" transform="translate(-2592.174 -1978.709)" fill="#fff"/>
            <path id="Path_24241" data-name="Path 24241" d="M2861.178,1983.72l-16.468.028-.094-5.352,16.483-.026Z" transform="translate(-2807.575 -1978.37)" fill="#fff"/>
          </g>
          <g id="Group_6501" data-name="Group 6501" transform="translate(1.648 68.127)">
            <path id="Path_24242" data-name="Path 24242" d="M2396.1,2106.154l-16.472.033-.129-5.339,16.488-.031Z" transform="translate(-2379.502 -2100.749)" fill="#fff"/>
            <path id="Path_24243" data-name="Path 24243" d="M2629.81,2105.723l-16.456.032-.111-5.336,16.472-.03Z" transform="translate(-2594.746 -2100.355)" fill="#fff"/>
            <path id="Path_24244" data-name="Path 24244" d="M2863.286,2105.293l-16.439.032-.094-5.334,16.455-.03Z" transform="translate(-2809.777 -2099.961)" fill="#fff"/>
          </g>
          <g id="Group_6502" data-name="Group 6502" transform="translate(1.88 77.716)">
            <path id="Path_24245" data-name="Path 24245" d="M2399.008,2227.429l-16.444.037-.128-5.321,16.459-.034Z" transform="translate(-2382.436 -2222.033)" fill="#fff"/>
            <path id="Path_24246" data-name="Path 24246" d="M2632.313,2226.939l-16.427.037-.111-5.318,16.443-.034Z" transform="translate(-2597.309 -2221.584)" fill="#fff"/>
            <path id="Path_24247" data-name="Path 24247" d="M2865.386,2226.448l-16.411.037-.094-5.315,16.427-.034Z" transform="translate(-2811.968 -2221.135)" fill="#fff"/>
          </g>
        </g>
      </g>
      <g id="Group_6505" data-name="Group 6505" transform="translate(168.542 81.223)">
        <path id="Path_24248" data-name="Path 24248" d="M4364.428,1555.868c5.8.284,12.07-6.927,13.385-13.979,1.352-7.257-3.45-9.494-4.847-19.074-1.587-10.883,3.827-13.368,5.378-28.588.35-3.434,2.377-23.307-4.216-25.99-6.1-2.481-20.4,9.39-21.337,21.989-.667,8.983,5.954,11.723,5.146,22.19-.709,9.184-6.042,10.113-6.813,18.987C4350.185,1542.206,4356.815,1555.495,4364.428,1555.868Z" transform="translate(-4351.034 -1467.906)" fill="url(#linear-gradient)"/>
        <path id="Path_24249" data-name="Path 24249" d="M4498.708,1793.238c-3.269-11.492-3.01-30.015-2.217-43.529.859-14.632,2.51-26.709,2.526-26.829l.489.068c-.017.12-1.665,12.181-2.523,26.794-.791,13.475-1.05,31.937,2.2,43.362Z" transform="translate(-4484.511 -1702.702)" fill="url(#linear-gradient-2)"/>
      </g>
      <g id="Group_6506" data-name="Group 6506" transform="translate(174.673 94.382)">
        <path id="Path_24250" data-name="Path 24250" d="M4440.434,1706.98c-9.252-3.086-14.617-17.9-10.555-23.644,2.745-3.88,8.013-1.1,12-5.306,5.085-5.367-.514-13.052,2.309-24.629,2.4-9.852,10.307-20.074,16.028-19.15,5.988.968,11.209,14.412,7.689,23.567-2.289,5.954-7.083,6.994-7.322,12.229-.278,6.075,6.032,7.817,6.975,13.513C4469.247,1693.792,4452.674,1711.062,4440.434,1706.98Z" transform="translate(-4428.504 -1634.193)" fill="url(#linear-gradient-3)"/>
        <path id="Path_24251" data-name="Path 24251" d="M4640.651,1967.67a.349.349,0,0,1-.157-.011.353.353,0,0,1-.236-.439c7.6-25.143,6.593-52.742,6.582-53.018a.352.352,0,1,1,.7-.028c.012.277,1.02,28-6.611,53.25A.351.351,0,0,1,4640.651,1967.67Z" transform="translate(-4623.487 -1891.705)" fill="url(#linear-gradient-4)"/>
        <path id="Path_24252" data-name="Path 24252" d="M4834.573,1693.061a.168.168,0,0,1-.174-.247c2.841-5.159,5.7-12.685,3.192-19.24a12.032,12.032,0,0,0-4.249-5.646.168.168,0,1,1,.178-.286,12.173,12.173,0,0,1,4.386,5.812c1.411,3.685,2,10.063-3.212,19.522A.168.168,0,0,1,4834.573,1693.061Z" transform="translate(-4801.231 -1664.971)" fill="#f0f0f0"/>
        <path id="Path_24253" data-name="Path 24253" d="M4461.884,2263.022a.166.166,0,0,1-.148-.05c-6.774-7.139-9.636-13.034-8.508-17.521a8.155,8.155,0,0,1,4.969-5.343.168.168,0,0,1,.106.32,7.8,7.8,0,0,0-4.75,5.109c-1.1,4.368,1.74,10.156,8.427,17.2a.168.168,0,0,1-.1.282Z" transform="translate(-4451.05 -2192.15)" fill="#f0f0f0"/>
      </g>
      <g id="Group_6511" data-name="Group 6511" transform="translate(0.111 115.238)">
        <g id="Group_6510" data-name="Group 6510">
          <path id="Path_24254" data-name="Path 24254" d="M2354.509,1899.816c24.986,6.247,39.645,22.948,46.873,24.637s36.184,3.233,40.905,7.62.211,7.5,6.282,13.144c6.717,18.952-14.078,24.622-14.078,24.622l-189.03-1.536s-12.756,1.147-13.039-7.963-.481-13.2.188-21.407,3.983-9.126,5.81-13.381,19.573-4.716,23.026-9.448,7.565-12.279,22.218-14.852C2303.9,1897.7,2340.017,1896.192,2354.509,1899.816Z" transform="translate(-2231.41 -1897.733)" fill="url(#linear-gradient-5)"/>
          <path id="Path_24255" data-name="Path 24255" d="M2222.683,2623.6c.325,10.472,18.079,8.616,18.156,8.609,0,0,14.115-10.8-5.3-10.39-5.835-.151-11.751-3.241-11.751-3.241Z" transform="translate(-2222.683 -2561.535)" fill="url(#linear-gradient-6)"/>
          <path id="Path_24256" data-name="Path 24256" d="M4573.913,2556.91s.186,2.671-4.818,5.4c-6.2,3.381-30.195-.378-30.195-.378v13.9l20.3,1.035C4558.722,2576.994,4585.85,2575.431,4573.913,2556.91Z" transform="translate(-4355.602 -2504.745)" fill="url(#linear-gradient-7)"/>
          <path id="Path_24257" data-name="Path 24257" d="M2642.421,2021.021s-.609-4.755,4.386-10.585,7.911-9.675,11.752-10.665,31.957-4.88,33.8-1.888,4.225,21.363,4.225,21.363Z" transform="translate(-2609.182 -1988.934)" fill="url(#linear-gradient-8)"/>
          <path id="Path_24258" data-name="Path 24258" d="M2658.986,1998.087c3.15-.469,27.064-3.25,33.239-2.456l1.6,6.147-51.509,18.059a13.8,13.8,0,0,1,2.328-7.772C2648.964,2005.583,2655.693,1998.5,2658.986,1998.087Z" transform="translate(-2609.1 -1987.753)" opacity="0.25" fill="url(#linear-gradient-9)"/>
          <path id="Path_24259" data-name="Path 24259" d="M3379.906,1991.384c.779,3.55,3.648,20.858,3.648,20.858l60.793-.281s-19.164-17.61-33.9-20.4S3379.408,1989.508,3379.906,1991.384Z" transform="translate(-3288.317 -1982.439)" fill="url(#linear-gradient-10)"/>
          <path id="Path_24260" data-name="Path 24260" d="M3402.559,1983c-12-1.666-16.4-1.35-28.978-.248l1.211,5.031s18.721-3.671,36.165-1.549A27.1,27.1,0,0,0,3402.559,1983Z" transform="translate(-3282.503 -1975.182)" opacity="0.25" fill="url(#linear-gradient-11)"/>
          <path id="Path_24261" data-name="Path 24261" d="M4725.207,2312.856s-9.85-3.158-12.252,4.629c-2.291,7.423,19.935,9.421,19.935,9.421S4731.251,2315.894,4725.207,2312.856Z" transform="translate(-4515.73 -2279.422)" fill="url(#linear-gradient-12)"/>
          <path id="Path_24262" data-name="Path 24262" d="M2593.521,1954.111a.574.574,0,0,0,.166-.024c2.313-.7,4.261-3.135,6.517-5.956,3.294-4.119,7.028-8.789,13.117-9.951,11.678-2.229,29.379-3.773,29.557-3.789a.572.572,0,0,0,.521-.619.563.563,0,0,0-.619-.521c-.178.015-17.938,1.565-29.673,3.8-6.5,1.241-10.548,6.3-13.8,10.361-2.136,2.672-3.982,4.979-5.954,5.576a.572.572,0,0,0,.165,1.119Z" transform="translate(-2563.648 -1930.438)" fill="#fff"/>
          <path id="Path_24263" data-name="Path 24263" d="M2364.788,2208.011a.572.572,0,0,0,.513-.318c.959-1.934,5.207-2.811,9.314-3.659,1.469-.3,2.989-.616,4.385-.983a.572.572,0,0,0-.289-1.107c-1.368.359-2.873.669-4.328.969-4.577.945-8.9,1.837-10.107,4.271a.571.571,0,0,0,.258.766A.563.563,0,0,0,2364.788,2208.011Z" transform="translate(-2353.016 -2177.855)" fill="#fff"/>
          <g id="Group_6507" data-name="Group 6507" transform="translate(90.976 32.522)">
            <path id="Path_24264" data-name="Path 24264" d="M3376.616,2345.622h.057a.62.62,0,0,0,.241-1.179c-1.184-1.9-2.72-22.494-3.418-35.185a.6.6,0,1,0-1.2.063c0,.089.5,9.058,1.209,17.89C3374.948,2345.187,3375.838,2345.622,3376.616,2345.622Z" transform="translate(-3372.293 -2308.687)" fill="#fff"/>
          </g>
          <path id="Path_24265" data-name="Path 24265" d="M2644.283,2491.785a19.512,19.512,0,0,0,.213-2.991,22.579,22.579,0,0,0-45.157-.02,19.78,19.78,0,0,0,.213,3.011Z" transform="translate(-2569.532 -2421.263)" fill="url(#linear-gradient-13)"/>
          <g id="Group_6508" data-name="Group 6508" transform="translate(26.186 40.962)">
            <circle id="Ellipse_896" data-name="Ellipse 896" cx="18.402" cy="18.402" r="18.402" transform="translate(0 26.025) rotate(-45)" fill="url(#linear-gradient-14)"/>
            <circle id="Ellipse_897" data-name="Ellipse 897" cx="14.945" cy="14.945" r="14.945" transform="translate(4.89 26.025) rotate(-45)" opacity="0.61" fill="url(#linear-gradient-15)"/>
            <path id="Path_24266" data-name="Path 24266" d="M2820.929,2592.548a.259.259,0,0,1-.1-.021.266.266,0,0,1-.142-.349,12.971,12.971,0,0,0-18.275-16.365.266.266,0,1,1-.26-.464,13.5,13.5,0,0,1,19.026,17.037A.266.266,0,0,1,2820.929,2592.548Z" transform="translate(-2782.352 -2561.106)" fill="#fff"/>
          </g>
          <path id="Path_24267" data-name="Path 24267" d="M4061.3,2506.148a18.853,18.853,0,0,0,.213-2.94,22.579,22.579,0,0,0-45.157-.032,19.221,19.221,0,0,0,.213,2.972Z" transform="translate(-3874.414 -2434.561)" fill="url(#linear-gradient-16)"/>
          <g id="Group_6509" data-name="Group 6509" transform="translate(138.325 42.13)">
            <circle id="Ellipse_898" data-name="Ellipse 898" cx="18.402" cy="18.402" r="18.402" transform="translate(0 26.025) rotate(-45)" fill="url(#linear-gradient-14)"/>
            <circle id="Ellipse_899" data-name="Ellipse 899" cx="14.945" cy="14.945" r="14.945" transform="translate(4.89 26.025) rotate(-45)" opacity="0.61" fill="url(#linear-gradient-18)"/>
            <path id="Path_24268" data-name="Path 24268" d="M4237.95,2607.311a.271.271,0,0,1-.1-.021.266.266,0,0,1-.141-.349,12.97,12.97,0,0,0-18.276-16.365.266.266,0,1,1-.26-.465,13.5,13.5,0,0,1,19.026,17.037A.267.267,0,0,1,4237.95,2607.311Z" transform="translate(-4199.373 -2575.869)" fill="#fff"/>
          </g>
        </g>
        <path id="Path_24269" data-name="Path 24269" d="M3766.21,2127.982l-4.614-4.837a13.664,13.664,0,0,0-6.971-3.963l-9.126-1.986a4.4,4.4,0,0,0-5.176,4.09l-.064.644a4.561,4.561,0,0,0,4.366,5.187l11.758-.144a4.061,4.061,0,0,1,3.777,2.651l.217.543a1.823,1.823,0,0,0,1.673,1.189h2.891A1.988,1.988,0,0,0,3766.21,2127.982Z" transform="translate(-3620.139 -2099.742)" fill="url(#linear-gradient-19)"/>
        <path id="Path_24270" data-name="Path 24270" d="M3447.1,2324.362h15.248a1.834,1.834,0,0,1,1.616,2.479,6.88,6.88,0,0,1-6.309,4.937c-3.552.273-8.029-1.9-11.406-3.958A1.877,1.877,0,0,1,3447.1,2324.362Z" transform="translate(-3348.618 -2290.6)" fill="url(#linear-gradient-20)"/>
        <path id="Path_24271" data-name="Path 24271" d="M2233.479,2418.36l2.666.475a1.859,1.859,0,0,1,1.533,1.83v6.292a1.854,1.854,0,0,1-1.854,1.854h-2.656Z" transform="translate(-2232.337 -2377.159)" fill="url(#linear-gradient-21)"/>
      </g>
      <g id="Group_6514" data-name="Group 6514" transform="translate(147.578 29.613)">
        <g id="Group_6513" data-name="Group 6513">
          <path id="Path_24272" data-name="Path 24272" d="M4113.443,867.131c0,13.653,11.486,24.721,25.656,24.721s26.291-11.552,26.291-25.205-12.121-24.238-26.291-24.238S4113.443,853.478,4113.443,867.131Z" transform="translate(-4111.282 -840.3)" fill="url(#linear-gradient-22)"/>
          <g id="Group_6512" data-name="Group 6512" transform="translate(17.817 3.121)">
            <path id="Path_24273" data-name="Path 24273" d="M4730.249,1040.866a.185.185,0,0,0,.046-.006.17.17,0,0,0,.126-.209,21.765,21.765,0,0,0-1.049-2.945.181.181,0,0,0-.232-.091.169.169,0,0,0-.094.224,21.225,21.225,0,0,1,1.032,2.9A.177.177,0,0,0,4730.249,1040.866Z" transform="translate(-4695.972 -1023.167)" fill="#fff"/>
            <path id="Path_24274" data-name="Path 24274" d="M4341.632,865.167a.184.184,0,0,0,.107-.034.167.167,0,0,0,.035-.239,26.069,26.069,0,0,0-20.482-9.7,25.226,25.226,0,0,0-9.91,2,.169.169,0,0,0-.091.225.18.18,0,0,0,.233.088,24.852,24.852,0,0,1,9.767-1.973,25.709,25.709,0,0,1,20.2,9.564A.179.179,0,0,0,4341.632,865.167Z" transform="translate(-4311.275 -855.194)" fill="#fff"/>
          </g>
          <path id="Path_24275" data-name="Path 24275" d="M4157.551,905.791c0,11.818,9.943,21.4,22.208,21.4s22.758-10,22.758-21.818-10.492-20.981-22.758-20.981S4157.551,893.973,4157.551,905.791Z" transform="translate(-4151.899 -878.96)" fill="url(#linear-gradient-23)"/>
          <path id="Path_24276" data-name="Path 24276" d="M4178.524,884.623l-.982,20.441-21.987.019c-.014.306-.024.612-.024.921,0,11.818,9.943,21.4,22.208,21.4s22.758-10,22.758-21.818C4200.5,894.021,4190.448,885,4178.524,884.623Z" transform="translate(-4150.038 -879.173)" fill="url(#linear-gradient-24)"/>
          <path id="Path_24277" data-name="Path 24277" d="M4187.229,1146.667a1.688,1.688,0,0,0,1.806,1.549,1.671,1.671,0,0,0,1.608-1.74,1.689,1.689,0,0,0-1.807-1.549A1.671,1.671,0,0,0,4187.229,1146.667Z" transform="translate(-4179.226 -1118.875)" fill="#fff" opacity="0.78"/>
          <path id="Path_24278" data-name="Path 24278" d="M4464.021,1353.458a1.653,1.653,0,0,0-1.374,1.917,1.706,1.706,0,0,0,1.988,1.325,1.654,1.654,0,0,0,1.376-1.917A1.707,1.707,0,0,0,4464.021,1353.458Z" transform="translate(-4432.824 -1310.88)" fill="#fff" opacity="0.78"/>
          <path id="Path_24279" data-name="Path 24279" d="M4380.009,910.259a1.653,1.653,0,0,0-1.375,1.917,1.706,1.706,0,0,0,1.989,1.325,1.652,1.652,0,0,0,1.375-1.917A1.706,1.706,0,0,0,4380.009,910.259Z" transform="translate(-4355.46 -902.755)" fill="#fff" opacity="0.78"/>
          <path id="Path_24280" data-name="Path 24280" d="M4325.5,1358.045c-.174.422-.13.818.1.883s.552-.224.727-.646.13-.818-.1-.884S4325.676,1357.622,4325.5,1358.045Z" transform="translate(-4306.461 -1314.526)" fill="#fff" opacity="0.78"/>
          <path id="Path_24281" data-name="Path 24281" d="M4223.437,1282.543c-.376.274-.553.634-.394.8s.593.085.969-.189.553-.634.394-.8S4223.813,1282.269,4223.437,1282.543Z" transform="translate(-4212.154 -1245.348)" fill="#fff" opacity="0.78"/>
          <path id="Path_24282" data-name="Path 24282" d="M4205.486,1046.144c-.426-.2-.838-.18-.921.034s.2.546.621.741.838.18.921-.034S4205.912,1046.339,4205.486,1046.144Z" transform="translate(-4195.179 -1027.785)" fill="#fff" opacity="0.78"/>
          <path id="Path_24283" data-name="Path 24283" d="M4628.2,1254.834c-.426-.2-.838-.18-.921.034s.195.546.621.741.838.18.921-.034S4628.627,1255.03,4628.2,1254.834Z" transform="translate(-4584.442 -1219.961)" fill="#fff" opacity="0.78"/>
          <path id="Path_24284" data-name="Path 24284" d="M4295.048,953.262c-.259-.38-.619-.573-.806-.432s-.127.564.131.944.62.573.806.432S4295.307,953.642,4295.048,953.262Z" transform="translate(-4277.672 -941.94)" fill="#fff" opacity="0.78"/>
          <path id="Path_24285" data-name="Path 24285" d="M4543.863,1343.1c-.258-.38-.619-.573-.806-.432s-.128.564.13.944.62.573.806.432S4544.122,1343.484,4543.863,1343.1Z" transform="translate(-4506.797 -1300.93)" fill="#fff" opacity="0.78"/>
          <path id="Path_24286" data-name="Path 24286" d="M4114.249,1094.95l-15.234-.391a.392.392,0,0,0-.375.553l.748,1.532a.4.4,0,0,1-.475.537l-12.511-3.615a.38.38,0,0,1,.043-.738l12.745-2.842a.375.375,0,0,1,.439.5l-.783,1.911a.371.371,0,0,0,.318.513l15.149,1.274a.372.372,0,0,1,.345.4h0A.4.4,0,0,1,4114.249,1094.95Z" transform="translate(-4086.131 -1068.275)" fill="url(#linear-gradient-25)"/>
          <path id="Path_24287" data-name="Path 24287" d="M4105.227,1102.389a.332.332,0,0,0-.2.292.313.313,0,0,0,.243.323l2.692.688a.182.182,0,0,0,.218-.123.166.166,0,0,0-.12-.209l-2.691-.688c2.9-.605,9.671-2.086,9.806-2.131a.175.175,0,0,0,.115-.219.172.172,0,0,0-.217-.107c-.2.055-5.385,1.192-9.773,2.151A.334.334,0,0,0,4105.227,1102.389Z" transform="translate(-4103.531 -1077.695)" fill="#fff"/>
          <path id="Path_24288" data-name="Path 24288" d="M4397.545,841.269l.027-12.94a.393.393,0,0,0-.584-.325l-1.545.83a.39.39,0,0,1-.573-.422l3.2-12.372a.4.4,0,0,1,.761-.009l3.458,12.154a.387.387,0,0,1-.5.46l-2-.627a.392.392,0,0,0-.514.344l-.938,12.919a.387.387,0,0,1-.4.362h0A.386.386,0,0,1,4397.545,841.269Z" transform="translate(-4370.426 -815.751)" fill="url(#linear-gradient-26)"/>
          <path id="Path_24289" data-name="Path 24289" d="M4432.07,843.908a.181.181,0,0,0,.064-.012.168.168,0,0,0,.1-.218c-.063-.187-1.452-5.135-2.622-9.321a.342.342,0,0,0-.659.016l-.6,2.656a.171.171,0,0,0,.136.2.178.178,0,0,0,.211-.131l.595-2.656c.745,2.771,2.554,9.227,2.6,9.354A.178.178,0,0,0,4432.07,843.908Z" transform="translate(-4401.273 -832.662)" fill="#fff"/>
          <ellipse id="Ellipse_900" data-name="Ellipse 900" cx="1.826" cy="1.76" rx="1.826" ry="1.76" transform="translate(26.149 24.452)" fill="url(#linear-gradient-27)"/>
          <path id="Path_24290" data-name="Path 24290" d="M4513.287,937.671c-.173.422-.13.818.1.883s.552-.224.726-.646.13-.818-.1-.884S4513.461,937.249,4513.287,937.671Z" transform="translate(-4479.386 -927.419)" fill="#fff" opacity="0.78"/>
          <path id="Path_24291" data-name="Path 24291" d="M4610.446,1017.224c-.376.274-.552.634-.393.8s.593.085.969-.189.552-.634.394-.8S4610.823,1016.95,4610.446,1017.224Z" transform="translate(-4568.539 -1001.026)" fill="#fff" opacity="0.78"/>
        </g>
      </g>
      <g id="Group_6523" data-name="Group 6523" transform="translate(18.593 83.433)">
        <g id="Group_6515" data-name="Group 6515" transform="translate(0.419 65.161)">
          <path id="Path_24292" data-name="Path 24292" d="M2528.775,3182.654a.86.86,0,0,0-.023-.227c-1.132-4.49-6.753-7.287-6.753-7.287l-2.228.175c-1.281,3.958-1.116,6.385-.911,7.466.006.031.015.059.023.088A52.845,52.845,0,0,0,2528.775,3182.654Z" transform="translate(-2514.193 -3107.407)" fill="url(#linear-gradient-28)"/>
          <path id="Path_24293" data-name="Path 24293" d="M2520.787,3270.3a.966.966,0,0,0,.707.713c2.614.55,6.768.107,8.512-.121a.811.811,0,0,0,.673-.808A52.875,52.875,0,0,1,2520.787,3270.3Z" transform="translate(-2516.097 -3194.84)" fill="url(#linear-gradient-29)"/>
          <path id="Path_24294" data-name="Path 24294" d="M2520.684,3135.423l.943,4.541a.742.742,0,0,0,.635.611,6.283,6.283,0,0,0,1.461-.023.934.934,0,0,0,.74-1.1l-.656-4.032Z" transform="translate(-2516.002 -3070.834)" fill="url(#linear-gradient-30)"/>
          <path id="Path_24295" data-name="Path 24295" d="M2716.588,3264.776a13.29,13.29,0,0,1-4.39-.628c0,.245,0,.494.008.752a.486.486,0,0,0,.463.494l13.507-.087a.617.617,0,0,0,.5-.9C2724.9,3264.555,2720.391,3264.882,2716.588,3264.776Z" transform="translate(-2692.36 -3189.372)" fill="url(#linear-gradient-31)"/>
          <path id="Path_24296" data-name="Path 24296" d="M2726.679,3190.425a.637.637,0,0,0-.053-.1,17.212,17.212,0,0,0-10.235-6.425l-2.88-.091a13.821,13.821,0,0,0-1.306,6.358,13.3,13.3,0,0,0,4.39.627C2720.4,3190.9,2724.908,3190.572,2726.679,3190.425Z" transform="translate(-2692.366 -3115.389)" fill="url(#linear-gradient-32)"/>
          <path id="Path_24297" data-name="Path 24297" d="M2720.346,3119.5c.045.212.645,3.444.877,4.7a.627.627,0,0,0,.563.531,6.585,6.585,0,0,0,1.972-.155.852.852,0,0,0,.591-.894l-.322-5.111Z" transform="translate(-2699.864 -3055.314)" fill="url(#linear-gradient-33)"/>
          <path id="Path_24298" data-name="Path 24298" d="M2479.824,2323.768s3.962,27.223,6.821,59.619a1.234,1.234,0,0,1-1.02,1.253,14.99,14.99,0,0,1-3.22.372,1.192,1.192,0,0,1-1.137-1c-.974-5.712-7.925-36.367-9.749-43.114,0,0-2.1,28.659-1.426,43.527a.7.7,0,0,1-.622.733,11.84,11.84,0,0,1-2.585-.007.943.943,0,0,1-.84-.8c-.694-4.834-4.687-33.609-4.517-54.337.01-1.169,1.371-10.773,1.371-10.773Z" transform="translate(-2461.524 -2319.246)" fill="url(#linear-gradient-34)"/>
        </g>
        <g id="Group_6516" data-name="Group 6516" transform="translate(45.481 22.479)">
          <path id="Path_24299" data-name="Path 24299" d="M3038.135,1998.656s-1.109-2.92-2.4-2.652a8.865,8.865,0,0,0-2.712,1.262l-2.081,2.815s5.842,2.3,7.9.982a44.951,44.951,0,0,0,13.5-.205,29.552,29.552,0,0,1-2.123-6.4A31.438,31.438,0,0,1,3038.135,1998.656Z" transform="translate(-3030.937 -1977.48)" fill="url(#linear-gradient-35)"/>
          <path id="Path_24300" data-name="Path 24300" d="M3294.058,1779.893s-8.544,10.761-19.531,16.98a29.526,29.526,0,0,0,2.123,6.4,35.276,35.276,0,0,0,17.888-8.127Z" transform="translate(-3255.25 -1779.893)" fill="url(#linear-gradient-36)"/>
        </g>
        <path id="Path_24301" data-name="Path 24301" d="M2712.169,1797.874l.531,14.246a39.153,39.153,0,0,0,4.307,1.223,43.04,43.04,0,0,1,4.276-8.636A21.12,21.12,0,0,1,2712.169,1797.874Z" transform="translate(-2691.914 -1773.972)" fill="url(#linear-gradient-37)"/>
        <path id="Path_24302" data-name="Path 24302" d="M2796.713,1794.811c-7.764,8.382-14.048,8.876-19.144,7.074a43.044,43.044,0,0,0-4.276,8.636c20.733,4.571,25.615-14.489,25.615-14.489Z" transform="translate(-2748.201 -1771.152)" fill="url(#linear-gradient-38)"/>
        <path id="Path_24303" data-name="Path 24303" d="M2457.426,1799.6a1.122,1.122,0,0,1-.736-.944c-.526-5.111-3.078-36.8,13.027-49.841,0,0,.923-2.416,8.515,3.523s3.527,12.166,1.709,20.753c-2.2,10.391-6.058,18.885-4.351,25.28a.886.886,0,0,1-.542,1.063A25.145,25.145,0,0,1,2457.426,1799.6Z" transform="translate(-2456.225 -1728.35)" fill="url(#linear-gradient-39)"/>
        <path id="Path_24304" data-name="Path 24304" d="M2631.2,1634.485c-.005.451-6.436,9.585-6.436,9.585s1.154,2.273,6.665,4.119l4.757-9.78Z" transform="translate(-2611.429 -1623.513)" fill="url(#linear-gradient-40)"/>
        <path id="Path_24305" data-name="Path 24305" d="M2674.135,1941.194s12.2,10.218,25.375,5.76a3.137,3.137,0,0,1,2.474.186l3.787,2a3.381,3.381,0,0,0,4.481-1.255,7.117,7.117,0,0,0,1.064-2.849l-7.411-3,.547-.909s-3.618-.306-4.566,2.287c0,0-6.892,2.867-18.516-9.918C2681.371,1933.5,2676.1,1937.982,2674.135,1941.194Z" transform="translate(-2656.89 -1898.862)" fill="url(#linear-gradient-41)"/>
        <path id="Path_24306" data-name="Path 24306" d="M2576.109,1919.4a.206.206,0,0,1-.117-.036,23.48,23.48,0,0,1-7.578-9.13.209.209,0,0,1,.385-.163,23.031,23.031,0,0,0,7.427,8.947.209.209,0,0,1-.117.382Z" transform="translate(-2559.521 -1877.171)" fill="url(#linear-gradient-42)"/>
        <path id="Path_24307" data-name="Path 24307" d="M2606.2,1795.966a.208.208,0,0,1-.176-.1c-.016-.024-1.585-2.467-4.574-7.82a6.025,6.025,0,0,0-3.591-3.1,7.015,7.015,0,0,0-4.782.635.209.209,0,0,1-.206-.363,7.29,7.29,0,0,1,5.1-.675,6.422,6.422,0,0,1,3.846,3.3c2.982,5.339,4.545,7.773,4.561,7.8a.209.209,0,0,1-.062.288A.2.2,0,0,1,2606.2,1795.966Z" transform="translate(-2581.961 -1761.504)" fill="url(#linear-gradient-43)"/>
        <g id="Group_6517" data-name="Group 6517" transform="translate(11.554)">
          <path id="Path_24308" data-name="Path 24308" d="M2663.282,1568.346s2.288,5.256,2.442,8.015.748,4.549-2.442,5.1a6.782,6.782,0,0,1-7.333-3.782s-2.281-4.234-1.769-5.969S2663.282,1568.346,2663.282,1568.346Z" transform="translate(-2650 -1562.608)" fill="url(#linear-gradient-44)"/>
          <path id="Path_24309" data-name="Path 24309" d="M2609.268,1508.942l.182-.08a.438.438,0,0,0,.214-.6c-.45-.869-1.327-2.861-.194-3.325,1.46-.6,7.243-1.778,8.491-3.83a3.818,3.818,0,0,0-1.46-5.242.219.219,0,0,0-.287.094l-.133.252a.217.217,0,0,1-.4-.041h0a.216.216,0,0,0-.39-.056c-.383.614-1.419,1.609-4.188,2.12-3.935.726-6.537,2.319-6.6,5.038a.217.217,0,0,1-.335.179c-.29-.177-.756-.26-1.377.262-1.081.909-.639,3.266,1.731,5.205a.215.215,0,0,1-.01.347c-.429.279-1.07.945.59,1.832a5.586,5.586,0,0,0,3.491.761.216.216,0,0,0,.175-.261l-.527-2.39a.217.217,0,0,1,.212-.264Z" transform="translate(-2602.228 -1495.842)" fill="url(#linear-gradient-45)"/>
          <path id="Path_24310" data-name="Path 24310" d="M2658.985,1637.7s-.873-3.358-2.378-2.416.781,3.762,1.991,3.888Z" transform="translate(-2651.846 -1624.093)" fill="url(#linear-gradient-46)"/>
        </g>
        <path id="Path_24311" data-name="Path 24311" d="M3026.044,2077.51s3.1,3.033,3.7,2.591a10.893,10.893,0,0,0,1.271-1.363,1.332,1.332,0,0,0,.091-1.568l-.731-1.129a2.114,2.114,0,0,0-3.155-.459A3.828,3.828,0,0,0,3026.044,2077.51Z" transform="translate(-2980.951 -2029.232)" fill="url(#linear-gradient-47)"/>
        <path id="Path_24312" data-name="Path 24312" d="M3519.559,1808.015c-1.671-7.936-3.342-12.531-8.937-27.574-1.76-4.734-3.359-9.524-2.586-14.515l.868-5.606a41.983,41.983,0,0,1,22.924-.155s16.442,7.143,5.274,42.42C3532.068,1808.217,3526.176,1809.823,3519.559,1808.015Z" transform="translate(-3424.615 -1737.842)" fill="url(#linear-gradient-48)"/>
        <path id="Path_24313" data-name="Path 24313" d="M3544.712,1668.54l2.819,6.773a1.35,1.35,0,0,0,1.02.811c1.625.279,5.557.714,8.139-.984a.657.657,0,0,0,.176-.922l-5.208-7.478Z" transform="translate(-3458.573 -1653.216)" fill="url(#linear-gradient-49)"/>
        <g id="Group_6518" data-name="Group 6518" transform="translate(82.522 0.63)">
          <path id="Path_24314" data-name="Path 24314" d="M3523.408,1554.256c-.118.111-5,9.692-5,9.692l5.53,2.669,5.973-8.393S3525.39,1552.39,3523.408,1554.256Z" transform="translate(-3516.875 -1549.924)" fill="url(#linear-gradient-50)"/>
          <path id="Path_24315" data-name="Path 24315" d="M3509.527,1513.109l-2.758,4.6a.849.849,0,0,1-.151.188,1.447,1.447,0,0,1-2.32-.016,7.782,7.782,0,0,0-2.179-2.356.881.881,0,0,0-1.189.392,32.864,32.864,0,0,0-1.888,4.477.877.877,0,0,0,.511,1.076,24.467,24.467,0,0,0,5.3,1.545.883.883,0,0,0,.834-.354c.845-1.157,3.226-4.392,4.039-5.2.755-.752,2.148-.469,2.776-.288a.888.888,0,0,0,.7-.092,1.943,1.943,0,0,0,.731-2.957.883.883,0,0,1,.273-1.2,1.951,1.951,0,0,0,.748-2.769,2.751,2.751,0,0,0-2.979-1.458.916.916,0,0,1-.961-.534.583.583,0,0,0-.455-.359.856.856,0,0,1-.693-1.005,2.259,2.259,0,0,0-1.261-2.588c-2.386-1.312-4.476.825-5.007,2.63s2.136,3.08,3.814,3.292c1.233.156,1.909,1.5,2.18,2.2A.883.883,0,0,1,3509.527,1513.109Z" transform="translate(-3499.002 -1503.803)" fill="url(#linear-gradient-51)"/>
          <path id="Path_24316" data-name="Path 24316" d="M3621.38,1662.857s1.061-3.1,2.419-2.99,2.427,1.467.744,2.988C3622.449,1664.746,3621.38,1662.857,3621.38,1662.857Z" transform="translate(-3611.696 -1647.514)" fill="url(#linear-gradient-52)"/>
        </g>
        <g id="Group_6519" data-name="Group 6519" transform="translate(93.44 131.038)">
          <path id="Path_24317" data-name="Path 24317" d="M3637.4,3266.426c2.626.227,7.184.6,10.776.754a10.382,10.382,0,0,0,4.119-.4c0,.081,0,.157-.006.228a.743.743,0,0,1-.707.7,126.291,126.291,0,0,1-14.11.014.529.529,0,0,1-.431-.795A4.3,4.3,0,0,1,3637.4,3266.426Z" transform="translate(-3636.971 -3257.345)" fill="url(#linear-gradient-53)"/>
          <path id="Path_24318" data-name="Path 24318" d="M3653.216,3205.48c-3.593-.158-8.15-.527-10.776-.754,2.582-3.167,10.776-5.3,10.776-5.3h2.314a9.7,9.7,0,0,1,1.8,5.653A10.379,10.379,0,0,1,3653.216,3205.48Z" transform="translate(-3642.007 -3195.646)" fill="url(#linear-gradient-54)"/>
          <path id="Path_24319" data-name="Path 24319" d="M3762.539,3151.68l-.216,4.286a.979.979,0,0,1-.836.92,3.81,3.81,0,0,1-1.738-.144,1.159,1.159,0,0,1-.779-.891l-.748-4.172Z" transform="translate(-3748.626 -3151.68)" fill="url(#linear-gradient-55)"/>
        </g>
        <g id="Group_6521" data-name="Group 6521" transform="translate(129.642 127.032)">
          <g id="Group_6520" data-name="Group 6520" transform="translate(1.02 3.977)">
            <path id="Path_24320" data-name="Path 24320" d="M4146.541,3259.454a2.079,2.079,0,0,0,1.87-1.383l0,.017a1.48,1.48,0,0,1-1,1.687,6.518,6.518,0,0,1-2.762.433,2.746,2.746,0,0,1-2.07-.955l-.007-.009A6.951,6.951,0,0,0,4146.541,3259.454Z" transform="translate(-4139.789 -3249.624)" fill="url(#linear-gradient-56)"/>
            <path id="Path_24321" data-name="Path 24321" d="M4108.7,3151.327h1.909c2.907-.059,4.733,6.073,5.331,8.447a2.079,2.079,0,0,1-1.87,1.383,6.951,6.951,0,0,1-3.961-.21,18.241,18.241,0,0,1-2.723-6.86A2.408,2.408,0,0,1,4108.7,3151.327Z" transform="translate(-4107.315 -3151.327)" fill="url(#linear-gradient-57)"/>
          </g>
          <path id="Path_24322" data-name="Path 24322" d="M4098.5,3101.067l1.06,4.215a1.145,1.145,0,0,1-.6,1.3,4.064,4.064,0,0,1-2.195.531.956.956,0,0,1-.78-.637l-1.556-4.435Z" transform="translate(-4094.431 -3101.067)" fill="url(#linear-gradient-58)"/>
        </g>
        <path id="Path_24323" data-name="Path 24323" d="M3691.134,2380.175c-1.318,1.169-5.607,1.324-5.607,1.324-15.449-37.079-21.89-47.287-21.89-47.287,2.231,14,.481,49.92.481,49.92-2.549,1.125-5.836,0-5.836,0-.207-22.913-3.433-47.533-7.593-63.287,10.442-.234,16.117-2.511,17.93-3.945C3677.321,2330.933,3691.134,2380.175,3691.134,2380.175Z" transform="translate(-3556.161 -2251.924)" fill="url(#linear-gradient-59)"/>
        <path id="Path_24324" data-name="Path 24324" d="M3051.633,1721.177a4.894,4.894,0,0,1-.606-2.216c.073-.988-.543-2.439.113-2.332s.79.02.968,1.205S3053.885,1723.393,3051.633,1721.177Z" transform="translate(-3003.779 -1699.152)" fill="url(#linear-gradient-60)"/>
        <g id="Group_6522" data-name="Group 6522" transform="translate(47.248 14.092)">
          <path id="Path_24325" data-name="Path 24325" d="M3058.823,1674.514a.625.625,0,0,0-.762-.584l-4.519,1.028a.354.354,0,0,0-.273.384l1.314,11.744a.191.191,0,0,0,.213.168l3.944-.478a.624.624,0,0,0,.549-.645Z" transform="translate(-3053.267 -1673.914)" fill="url(#linear-gradient-61)"/>
          <path id="Path_24326" data-name="Path 24326" d="M3064.6,1686.166a.353.353,0,0,0-.439-.323l-2.973.743a.354.354,0,0,0-.266.382l1.128,10a.191.191,0,0,0,.223.167l2.742-.488a.191.191,0,0,0,.157-.2Z" transform="translate(-3060.317 -1684.889)" fill="url(#linear-gradient-62)"/>
          <path id="Path_24327" data-name="Path 24327" d="M3071.332,1685.742c.008.035-.041.075-.109.089l-.994.206c-.067.014-.128,0-.135-.039l-.007-.034c-.007-.035.041-.075.109-.089l.994-.206c.067-.014.128,0,.135.039Z" transform="translate(-3068.755 -1684.734)" fill="url(#linear-gradient-63)"/>
        </g>
        <path id="Path_24328" data-name="Path 24328" d="M3107.54,1694.86c-.73-.269-2.159-2.741-2.433-1.928s.116,1.928,0,2.274-.906,2.267-.55,3.151a34.3,34.3,0,0,1,.9,3.644.746.746,0,0,0,1.461,0C3106.943,1701.864,3108.27,1695.129,3107.54,1694.86Z" transform="translate(-3053.166 -1677.185)" fill="url(#linear-gradient-64)"/>
        <path id="Path_24329" data-name="Path 24329" d="M3715.62,2245.72a1.062,1.062,0,0,0-.767.593l-1.875,4.186a1.223,1.223,0,0,0,.675,1.547l9.509,4.678a1.378,1.378,0,0,0,1.021.089,1.035,1.035,0,0,0,.673-.636l1.1-3.146a1.21,1.21,0,0,0-.549-1.382l-8.739-5.718A1.414,1.414,0,0,0,3715.62,2245.72Z" transform="translate(-3613.443 -2186.353)" fill="url(#linear-gradient-65)"/>
        <path id="Path_24330" data-name="Path 24330" d="M3755.545,1821.979c2.033-15.358-9.8-27.168-9.8-27.168l-7.042,8.209a45.146,45.146,0,0,1,9.048,17.567C3749.289,1820.139,3753,1819.43,3755.545,1821.979Z" transform="translate(-3637.21 -1771.152)" fill="url(#linear-gradient-66)"/>
        <path id="Path_24331" data-name="Path 24331" d="M3742.675,1911.477a.436.436,0,0,1-.423-.333,44.887,44.887,0,0,0-8.965-17.4.436.436,0,1,1,.68-.546,45.763,45.763,0,0,1,9.133,17.737.436.436,0,0,1-.321.526A.432.432,0,0,1,3742.675,1911.477Z" transform="translate(-3632.136 -1861.605)" fill="url(#linear-gradient-67)"/>
        <path id="Path_24332" data-name="Path 24332" d="M3778.941,2115.779a28.119,28.119,0,0,1,.7,9.518,1.236,1.236,0,0,1-1.143,1.108c-.682.048-1.61.11-2.44.158a4.553,4.553,0,0,1-2.6-1.005.407.407,0,0,0-.6.515,7.2,7.2,0,0,0,2.67,2.385.422.422,0,0,1-.1.77l-2.425.687a.748.748,0,0,0-.241,1.321c5.581,4.137,9.194-1.632,9.194-1.632a31.794,31.794,0,0,0,4.675-12.856C3784.046,2113.626,3780.48,2115.33,3778.941,2115.779Z" transform="translate(-3668.299 -2065.919)" fill="url(#linear-gradient-68)"/>
      </g>
      <g id="Group_6528" data-name="Group 6528" transform="translate(53.852 69.355)">
        <g id="Group_6527" data-name="Group 6527">
          <g id="Group_6524" data-name="Group 6524" transform="translate(11.212 13.121)">
            <path id="Path_24333" data-name="Path 24333" d="M3045.3,1488.937c.863-.722,4.137-6.213,9.376,0,.566.3,2.032-.533,1.845-1.113-6.13-8.942-13.766-.55-13.017.37S3044.3,1489.777,3045.3,1488.937Z" transform="translate(-3043.458 -1483.738)" fill="#fff"/>
          </g>
          <g id="Group_6525" data-name="Group 6525" transform="translate(6.288 6.528)">
            <path id="Path_24334" data-name="Path 24334" d="M3002.918,1408.5c1.144-.134,2.219-.915,1.9-1.915s-11.229-13.733-23.384.637a.868.868,0,0,0,.107,1.225,2.13,2.13,0,0,0,1.636.7C2994.3,1396.527,3001.774,1408.629,3002.918,1408.5Z" transform="translate(-2981.227 -1400.427)" fill="#fff"/>
          </g>
          <g id="Group_6526" data-name="Group 6526">
            <path id="Path_24335" data-name="Path 24335" d="M2935.434,1328.729c.812.163,2.473-.448,2.043-1.782-19.208-20.9-36.314,1.006-35.686,1.889a2.039,2.039,0,0,0,2.412.618C2919.5,1309.837,2934.622,1328.566,2935.434,1328.729Z" transform="translate(-2901.774 -1317.941)" fill="#fff"/>
          </g>
        </g>
        <path id="Path_24336" data-name="Path 24336" d="M3097.943,1560.169a2.544,2.544,0,1,1-2.544-2.544A2.544,2.544,0,0,1,3097.943,1560.169Z" transform="translate(-3077.733 -1538.657)" fill="#fff"/>
      </g>
      <g id="Group_6532" data-name="Group 6532" transform="translate(9.879 0)">
        <g id="Group_6529" data-name="Group 6529" transform="translate(0 23.995)">
          <circle id="Ellipse_901" data-name="Ellipse 901" cx="10.323" cy="10.323" r="10.323" transform="translate(0.35 18.982) rotate(-64.48)" fill="url(#linear-gradient-69)"/>
          <circle id="Ellipse_902" data-name="Ellipse 902" cx="9.98" cy="9.98" r="9.98" transform="translate(0 14.113) rotate(-45)" fill="url(#linear-gradient-70)"/>
          <path id="Path_24337" data-name="Path 24337" d="M2415.95,807.64a.388.388,0,0,1-.346-.562,9.56,9.56,0,0,1,8.575-5.28,9.694,9.694,0,0,1,1.731.156.388.388,0,1,1-.139.763,8.9,8.9,0,0,0-1.592-.143,8.788,8.788,0,0,0-7.883,4.854A.388.388,0,0,1,2415.95,807.64Z" transform="translate(-2410.066 -797.285)" fill="#fff"/>
          <circle id="Ellipse_903" data-name="Ellipse 903" cx="8.447" cy="8.447" r="8.447" transform="translate(2.386 14.331) rotate(-45)" fill="#fff" opacity="0.78"/>
        </g>
        <g id="Group_6530" data-name="Group 6530" transform="translate(20.777)">
          <circle id="Ellipse_904" data-name="Ellipse 904" cx="17.97" cy="17.97" r="17.97" transform="translate(0 25.414) rotate(-45)" fill="url(#linear-gradient-69)"/>
          <circle id="Ellipse_905" data-name="Ellipse 905" cx="17.373" cy="17.373" r="17.373" transform="translate(0.845 25.414) rotate(-45)" fill="url(#linear-gradient-70)"/>
          <path id="Path_24338" data-name="Path 24338" d="M2744.256,564.737a.383.383,0,0,1-.174-.042.387.387,0,0,1-.171-.521,16.356,16.356,0,0,1,14.671-9.033,16.581,16.581,0,0,1,2.962.267.388.388,0,1,1-.139.763,15.794,15.794,0,0,0-2.824-.254,15.585,15.585,0,0,0-13.979,8.608A.387.387,0,0,1,2744.256,564.737Z" transform="translate(-2733.168 -546.152)" fill="#fff"/>
          <circle id="Ellipse_906" data-name="Ellipse 906" cx="14.704" cy="14.704" r="14.704" transform="translate(4.998 25.793) rotate(-45)" fill="#fff" opacity="0.78"/>
        </g>
        <g id="Group_6531" data-name="Group 6531" transform="translate(14.426 41.209)">
          <circle id="Ellipse_907" data-name="Ellipse 907" cx="14.663" cy="14.663" r="14.663" transform="translate(0 20.736) rotate(-45)" fill="url(#linear-gradient-69)"/>
          <circle id="Ellipse_908" data-name="Ellipse 908" cx="14.175" cy="14.175" r="14.175" transform="translate(0.69 20.736) rotate(-45)" fill="url(#linear-gradient-70)"/>
          <path id="Path_24339" data-name="Path 24339" d="M2639.148,1062.892a.307.307,0,0,1-.274-.446,13.336,13.336,0,0,1,11.963-7.365,13.512,13.512,0,0,1,2.416.217.307.307,0,0,1-.11.6,12.91,12.91,0,0,0-2.306-.207,12.725,12.725,0,0,0-11.414,7.028A.307.307,0,0,1,2639.148,1062.892Z" transform="translate(-2630.101 -1047.737)" fill="#fff"/>
          <circle id="Ellipse_909" data-name="Ellipse 909" cx="11.997" cy="11.997" r="11.997" transform="translate(4.078 21.045) rotate(-45)" fill="#fff" opacity="0.78"/>
        </g>
      </g>
    </g>
    <g id="Group_6534" data-name="Group 6534" transform="translate(2270.544 334.672)">
      <path id="Path_24340" data-name="Path 24340" d="M2845.507,648.9a3.769,3.769,0,0,1,2.931,1.165,4.592,4.592,0,0,1,1.062,3.212V654.4h1.05v2.585h-1.05l.026,4.735a1.664,1.664,0,0,0,.576,1.382,2.242,2.242,0,0,0,1.446.461,3.253,3.253,0,0,0,2.65-1.241,4.573,4.573,0,0,0,1.011-2.982q0-2.406-2.3-2.406a5.5,5.5,0,0,0-1.075.1V654.43a7.561,7.561,0,0,1,1.485-.154,4.658,4.658,0,0,1,3.635,1.382,5.277,5.277,0,0,1,1.254,3.686,6.911,6.911,0,0,1-1.817,4.8,6.205,6.205,0,0,1-4.838,2.009,5.432,5.432,0,0,1-3.545-1.177,3.962,3.962,0,0,1-1.446-3.251V656.99h-2.125V654.4h2.125v-.666q0-2.073-1.792-2.073-.666,0-.922.026v-2.637A10.93,10.93,0,0,1,2845.507,648.9Z" transform="translate(-2843.843 -648.901)" fill="#f7931e"/>
    </g>
    <g id="Group_6535" data-name="Group 6535" transform="translate(2241.602 351.444)">
      <path id="Path_24341" data-name="Path 24341" d="M2479.066,860.841a2.153,2.153,0,0,1,1.674.665,2.623,2.623,0,0,1,.607,1.835v.643h.6v1.477h-.6l.015,2.7a.951.951,0,0,0,.329.79,1.282,1.282,0,0,0,.826.263,1.858,1.858,0,0,0,1.513-.709,2.611,2.611,0,0,0,.578-1.7q0-1.374-1.316-1.375a3.14,3.14,0,0,0-.614.059V864a4.322,4.322,0,0,1,.848-.088,2.661,2.661,0,0,1,2.076.79,3.014,3.014,0,0,1,.717,2.106,3.948,3.948,0,0,1-1.038,2.742,3.545,3.545,0,0,1-2.763,1.148,3.1,3.1,0,0,1-2.025-.672,2.263,2.263,0,0,1-.826-1.857v-2.7h-1.214v-1.477h1.214v-.38q0-1.185-1.023-1.184-.38,0-.526.015v-1.506A6.23,6.23,0,0,1,2479.066,860.841Z" transform="translate(-2478.116 -860.841)" fill="#f7931e"/>
    </g>
    <g id="Group_6536" data-name="Group 6536" transform="translate(2260.832 374.314)">
      <path id="Path_24342" data-name="Path 24342" d="M2722.383,1149.828a2.879,2.879,0,0,1,2.239.89,3.507,3.507,0,0,1,.812,2.454v.86h.8v1.975h-.8l.02,3.618a1.271,1.271,0,0,0,.44,1.056,1.713,1.713,0,0,0,1.1.352,2.485,2.485,0,0,0,2.024-.948,3.494,3.494,0,0,0,.773-2.278q0-1.838-1.76-1.838a4.184,4.184,0,0,0-.822.078v-1.995a5.782,5.782,0,0,1,1.135-.117,3.559,3.559,0,0,1,2.777,1.056,4.031,4.031,0,0,1,.958,2.816,5.28,5.28,0,0,1-1.388,3.667,4.741,4.741,0,0,1-3.7,1.535,4.15,4.15,0,0,1-2.709-.9,3.027,3.027,0,0,1-1.1-2.484v-3.618h-1.623v-1.975h1.623v-.509q0-1.584-1.369-1.584-.508,0-.7.02v-2.014A8.338,8.338,0,0,1,2722.383,1149.828Z" transform="translate(-2721.112 -1149.828)" fill="#f7931e"/>
    </g>
  </g>
</svg>
